# AST/ASF file generated using VICON BodyLanguage
# -----------------------------------------------
:version 1.10
:name VICON
:units
  mass 1.0
  length 0.45
  angle deg
:documentation
   .ast/.asf automatically generated from VICON data using
   VICON BodyBuilder and BodyLanguage model FoxedUp or BRILLIANT.MOD
:root
   order TX TY TZ RX RY RZ
   axis XYZ
   position 0 0 0  
   orientation 0 0 0 
:bonedata
  begin
     id 1 
     name lhipjoint
     direction 0.535335 -0.74333 0.401095 
     length 2.04549 
     axis 0 0 0  XYZ
  end
  begin
     id 2 
     name lfemur
     direction 0.34202 -0.939693 0  
     length 6.95643  
     axis 0 0 20  XYZ
    dof rx ry rz
    limits (-160.0 20.0)
           (-70.0 70.0)
           (-60.0 70.0)
  end
  begin
     id 3 
     name ltibia
     direction 0.34192 -0.939729 0   
     length 5.55969   
     axis 0 0 20   XYZ
    dof rx
    limits (-10.0 170.0)
  end
  begin
     id 4 
     name lfoot
     direction 0.216943 -0.596046 0.773088   
     length 2.27918   
     axis -90 7.62852e-016 20   XYZ
    dof rx rz
    limits (-45.0 90.0)
           (-70.0 20.0)
  end
  begin
     id 5 
     name ltoes
     direction 1.53519e-011 -4.21748e-011 1   
     length 1.05562   
     axis -90 7.62852e-016 20   XYZ
    dof rx
    limits (-90.0 20.0)
  end
  begin
     id 6 
     name rhipjoint
     direction -0.576368 -0.719173 0.38806   
     length 2.1142  
     axis 0 0 0  XYZ 
  end
  begin
     id 7 
     name rfemur
     direction -0.34202 -0.939693 0   
     length 7.07928   
     axis 0 0 -20   XYZ
    dof rx ry rz
    limits (-160.0 20.0)
           (-70.0 70.0)
           (-70.0 60.0)
  end
  begin
     id 8 
     name rtibia
     direction -0.34202 -0.939693 0   
     length 5.79974   
     axis 0 0 -20   XYZ
    dof rx
    limits (-10.0 170.0)
 end
 begin
     id 9 
     name rfoot
     direction -0.189288 -0.520065 0.832888   
     length 2.42173  
     axis -90 -7.62852e-016 -20   XYZ
    dof rx rz
    limits (-45.0 90.0)
           (-20.0 70.0)
  end
  begin
     id 10 
     name rtoes
     direction -1.53574e-011 -4.21658e-011 1   
     length 1.14469   
     axis -90 -7.62852e-016 -20   XYZ
    dof rx
    limits (-90.0 20.0)
  end
  begin
     id 11 
     name lowerback
     direction -0.00135702 0.993803 0.111144   
     length 1.91308   
     axis 0 0 0   XYZ
    dof rx ry rz
    limits (-20.0 45.0)
           (-30.0 30.0)
           (-30.0 30.0)
  end
  begin
     id 12 
     name upperback
     direction -0.0056745 0.999813 0.0184631   
     length 1.9212   
     axis 0 0 0   XYZ
    dof rx ry rz
    limits (-20.0 45.0)
           (-30.0 30.0)
           (-30.0 30.0)
  end
  begin
     id 13 
     name thorax
     direction -0.00733434 0.999426 -0.0330788   
     length 1.94196   
     axis 0 0 0   XYZ
    dof rx ry rz
    limits (-20.0 45.0)
           (-30.0 30.0)
           (-30.0 30.0)
  end
  begin
     id 14 
     name lowerneck
     direction 0.0563074 0.996944 -0.0541571   
     length 2.34257   
     axis 0 0 0   XYZ
    dof rx ry rz
    limits (-20.0 45.0)
           (-30.0 30.0)
           (-30.0 30.0)
  end
  begin
     id 15 
     name upperneck
     direction -0.0544519 0.976166 -0.210085   
     length 2.32506   
     axis 0 0 0   XYZ
    dof rx ry rz
    limits (-20.0 45.0)
           (-30.0 30.0)
           (-30.0 30.0)
  end
  begin
     id 16
     name head
     direction -0.0226035 0.997615 -0.0652205  
     length 2.3648  
     axis 0 0 0   XYZ
    dof rx ry rz
    limits (-20.0 45.0)
           (-30.0 30.0)
           (-30.0 30.0)
  end
  begin
     id 17 
     name lclavicle
     direction 0.92109 0.381297 -0.0787716  
     length 4.0487  
     axis 0 0 0   XYZ
    dof ry rz
    limits (-20.0 10.0)
           (0.0 20.0)
  end
  begin
     id 18 
     name lhumerus
     direction 1 -4.48986e-011 3.56724e-027   
     length 4.94991   
     axis 180 -30 -90   XYZ
    dof rx ry rz
    limits (-60.0 90.0)
           (-90.0 90.0)
           (-90.0 90.0)
  end
  begin
     id 19
     name lradius
     direction 1 -4.48981e-011 8.62147e-027   
     length 2.7606   
     axis 180 -30 -90   XYZ
    dof rx
    limits (-10.0 170.0)
  end
  begin
     id 20
     name lwrist
     direction 1 -4.48989e-011 1.59799e-026   
     length 1.3803   
     axis -1.17785e-014 90 90   XYZ
    dof ry
    limits (-180.0 0.0)
 end
  begin
     id 21 
     name lhand
     direction 1 -4.48896e-011 3.19599e-026   
     length 0.843936   
     axis -2.03931e-014 90 90   XYZ
    dof rx rz
    limits (-90.0 90.0)
           (-45.0 45.0)
  end
  begin
     id 22 
     name lfingers
     direction 1 -4.48887e-011 6.39197e-026   
     length 0.680403   
     axis -4.07862e-014 90 90   XYZ
    dof rx
    limits (0.0 90.0)
  end
  begin
     id 23
     name lthumb
     direction 0.707107 -6.348e-011 0.707107   
     length 0.976926   
     axis -90 45 2.85299e-015   XYZ
    dof rx rz
    limits (-45.0 45.0)
           (-45.0 45.0)
  end
  begin
     id 24 
     name rclavicle
     direction -0.951104 0.307692 -0.026953   
     length 4.21801  
     axis 0 0 0   XYZ 
    dof ry rz
    limits (-10.0 20.0)
           (-20.0 0.0)
  end
  begin
     id 25 
     name rhumerus
     direction -1 -4.4896e-011 -1.8171e-018  
     length 4.32982   
     axis 180 30 90   XYZ
    dof rx ry rz
    limits (-90.0 60.0)
           (-90.0 90.0)
           (-90.0 90.0)
  end
  begin
     id 26 
     name rradius
     direction -1 -4.48959e-011 8.25165e-027   
     length 3.20057   
     axis 180 30 90   XYZ
    dof rx
    limits (-10.0 170.0)
  end
  begin
     id 27 
     name rwrist
     direction -1 -4.48997e-011 1.59799e-026   
     length 1.60029   
     axis -1.17785e-014 -90 -90   XYZ
    dof ry
    limits (-180.0 0.0)
  end
  begin
     id 28
     name rhand
     direction -1 -4.49023e-011 3.19599e-026   
     length 0.960433   
     axis -2.03931e-014 -90 -90   XYZ
    dof rx rz
    limits (-90.0 90.0)
           (-45.0 45.0)
  end
  begin
     id 29
     name rfingers
     direction -1 -4.48802e-011 6.39197e-026   
     length 0.774326   
     axis -4.07862e-014 -90 -90   XYZ
    dof rx
    limits (0.0 90.0)
  end
  begin
     id 30
     name rthumb
     direction -0.707107 -6.34876e-011 0.707107   
     length 1.11178   
     axis -90 -45 -2.85299e-015   XYZ
    dof rx rz
    limits (-45.0 45.0)
           (-45.0 45.0)
  end
:hierarchy
  begin
    root lhipjoint rhipjoint lowerback
    lhipjoint lfemur
    lfemur ltibia
    ltibia lfoot
    lfoot ltoes
    rhipjoint rfemur
    rfemur rtibia
    rtibia rfoot
    rfoot rtoes
    lowerback upperback
    upperback thorax
    thorax lowerneck lclavicle rclavicle
    lowerneck upperneck
    upperneck head
    lclavicle lhumerus
    lhumerus lradius
    lradius lwrist
    lwrist lhand lthumb
    lhand lfingers
    rclavicle rhumerus
    rhumerus rradius
    rradius rwrist
    rwrist rhand rthumb
    rhand rfingers
end

#!OML:ASF C:\KaitlinTest1\Natural Motions\Nikki\Session 2\Nikki.ASF
:FULLY-SPECIFIED
:DEGREES
1023
root -16.2193 16.3236 5.44619 -83.5893 88.7038 -97.4418
lowerback -7.30932 1.00043 0.149992
upperback -2.98575 1.4271 -1.53919
thorax 1.05919 0.740164 -1.55177
lowerneck 7.19593 -8.54303 -17.62
upperneck 10.6229 42.8046 6.19832
head 160.391 71.8842 -43.2661
rclavicle 1.20265e-014 -1.27222e-014
rhumerus -32.19 -6.54974 -88.0941
rradius 18.987
rwrist 19.7309
rhand -31.7798 2.79408
rfingers 7.12502
rthumb -5.03607 -27.1261
lclavicle 1.20265e-014 -1.27222e-014
lhumerus -48.9232 27.4544 59.6157
lradius 19.3449
lwrist -43.2782
lhand -36.6696 3.89181
lfingers 7.12502
lthumb -9.75591 33.6458
rfemur -17.3532 -13.5836 20.9127
rtibia 26.5514
rfoot -19.4583 7.46305
rtoes 1.23246e-013
lfemur -19.3866 15.1725 -19.0591
ltibia 27.2029
lfoot -11.7316 3.68627
ltoes 1.20861e-013
1024
root -16.2475 16.317 5.46576 -74.4691 88.6943 -88.3209
lowerback -7.24859 0.985767 0.220746
upperback -3.06217 1.40267 -1.51565
thorax 0.947179 0.727576 -1.57127
lowerneck 7.0191 -8.36417 -17.7362
upperneck 10.8327 43.5409 6.47087
head 161.818 71.3414 -42.2284
rclavicle -1.23743e-014 -3.97569e-015
rhumerus -32.1525 -5.88448 -88.4848
rradius 19.1081
rwrist 19.7045
rhand -31.5811 2.48371
rfingers 7.12502
rthumb -4.84424 -27.4409
lclavicle -1.23743e-014 -3.97569e-015
lhumerus -49.1871 27.6267 59.6857
lradius 19.4944
lwrist -42.891
lhand -36.4885 4.01092
lfingers 7.12502
lthumb -9.58119 33.7731
rfemur -17.4426 -13.7012 20.996
rtibia 26.5321
rfoot -19.5741 7.9094
rtoes 4.53229e-014
lfemur -19.5673 15.0431 -18.9784
ltibia 27.4608
lfoot -11.7064 4.05507
ltoes -4.77083e-014
1025
root -16.2727 16.3136 5.48355 -63.1158 88.6747 -76.9357
lowerback -7.24338 1.02349 0.298546
upperback -3.09159 1.44842 -1.54112
thorax 0.917789 0.749874 -1.63799
lowerneck 6.91564 -8.34499 -17.6977
upperneck 10.9654 43.9632 6.61975
head 162.396 70.7943 -41.7608
rclavicle 1.98785e-015 -6.36111e-015
rhumerus -32.0587 -5.58481 -88.7581
rradius 19.1175
rwrist 19.7627
rhand -31.3908 2.46128
rfingers 7.12502
rthumb -4.66047 -27.4675
lclavicle 1.98785e-015 -6.36111e-015
lhumerus -49.1546 27.538 60.0506
lradius 19.6271
lwrist -42.151
lhand -36.4517 4.20844
lfingers 7.12502
lthumb -9.5456 33.9722
rfemur -17.5721 -14.2591 21.0611
rtibia 26.5804
rfoot -19.7966 8.78287
rtoes -2.70347e-014
lfemur -19.7108 15.0729 -18.9706
ltibia 27.6703
lfoot -11.6831 4.30415
ltoes -1.90833e-014
1026
root -16.2979 16.3113 5.50739 -56.2109 88.6366 -69.9493
lowerback -7.17904 1.00726 0.288267
upperback -3.0757 1.42627 -1.54154
thorax 0.89764 0.738372 -1.63542
lowerneck 6.86926 -8.29962 -17.666
upperneck 10.8671 43.774 6.56924
head 162.49 70.9693 -41.6739
rclavicle 1.88845e-015 8.74653e-015
rhumerus -31.9296 -5.13836 -89.1188
rradius 19.1693
rwrist 19.648
rhand -31.4761 2.63798
rfingers 7.12502
rthumb -4.74283 -27.2889
lclavicle 1.88845e-015 8.74653e-015
lhumerus -49.2793 27.7048 60.1634
lradius 19.8867
lwrist -41.9683
lhand -36.2477 4.05577
lfingers 7.12502
lthumb -9.34885 33.8285
rfemur -17.6556 -14.5226 21.1277
rtibia 26.6928
rfoot -19.8626 9.32588
rtoes -1.1609e-013
lfemur -19.7933 15.0425 -18.8902
ltibia 27.8467
lfoot -11.645 4.52963
ltoes -8.42847e-014
1027
root -16.3255 16.3149 5.5284 -48.9458 88.6503 -62.7412
lowerback -7.1943 0.94507 0.243609
upperback -3.14056 1.34701 -1.50097
thorax 0.834884 0.699537 -1.57532
lowerneck 6.75787 -8.19695 -17.7543
upperneck 10.9591 44.1364 6.65389
head 162.985 70.6205 -41.2824
rclavicle -1.16786e-014 2.06736e-014
rhumerus -31.8774 -4.5136 -89.4266
rradius 19.3105
rwrist 19.4931
rhand -31.4926 2.70324
rfingers 7.12502
rthumb -4.75883 -27.2233
lclavicle -1.16786e-014 2.06736e-014
lhumerus -49.4044 27.8245 60.4282
lradius 20.0242
lwrist -41.6625
lhand -36.0952 3.90905
lfingers 7.12502
lthumb -9.20167 33.6883
rfemur -17.9573 -14.9455 21.1572
rtibia 26.8428
rfoot -19.848 10.0109
rtoes 4.05521e-014
lfemur -20.025 14.8185 -18.9357
ltibia 27.9785
lfoot -11.4634 4.89687
ltoes 3.18055e-014
1028
root -16.3553 16.3163 5.55239 -44.0536 88.6684 -57.8872
lowerback -7.33645 0.924776 0.214635
upperback -3.02165 1.32234 -1.54705
thorax 1.03577 0.687329 -1.6047
lowerneck 6.4454 -8.24994 -17.5996
upperneck 10.8436 44.0873 6.62774
head 162.922 70.673 -41.4049
rclavicle -1.76918e-014 1.11319e-014
rhumerus -31.4469 -4.22591 -89.7601
rradius 19.285
rwrist 19.4773
rhand -31.477 2.70298
rfingers 7.12502
rthumb -4.74372 -27.2239
lclavicle -1.76918e-014 1.11319e-014
lhumerus -48.9216 27.4851 61.258
lradius 20.288
lwrist -40.9434
lhand -35.8719 3.98242
lfingers 7.12502
lthumb -8.98615 33.771
rfemur -18.2565 -15.0836 21.2374
rtibia 27.0566
rfoot -19.8285 10.2315
rtoes 0
lfemur -20.2642 14.2509 -18.9219
ltibia 28.0923
lfoot -11.2527 5.60286
ltoes -5.56597e-014
